<svg width="50" height="50" viewBox="0 0 50 50" fill="none" xmlns="http://www.w3.org/2000/svg">
<path d="M2.875 7.75H14.375V16.375H2.875V7.75ZM5.75 13.5H11.5V10.625H5.75V13.5ZM2.875 19.25H14.375V27.875H2.875V19.25ZM5.75 25H11.5V22.125H5.75V25ZM17.25 7.75H28.75V16.375H17.25V7.75ZM20.125 13.5H25.875V10.625H20.125V13.5ZM43.125 7.75V16.375H31.625V7.75H43.125ZM40.25 10.625H34.5V13.5H40.25V10.625ZM17.25 19.25H28.75V27.875H17.25V19.25ZM20.125 25H25.875V22.125H20.125V25ZM2.875 30.75H14.375V39.375H2.875V30.75ZM5.75 36.5H11.5V33.625H5.75V36.5Z" fill="#06416C"/>
</svg>
