<svg width="46" height="46" viewBox="0 0 46 46" fill="none" xmlns="http://www.w3.org/2000/svg">
<path d="M2.875 5.75H14.375V14.375H2.875V5.75ZM5.75 11.5H11.5V8.625H5.75V11.5ZM2.875 17.25H14.375V25.875H2.875V17.25ZM5.75 23H11.5V20.125H5.75V23ZM17.25 5.75H28.75V14.375H17.25V5.75ZM20.125 11.5H25.875V8.625H20.125V11.5ZM43.125 5.75V14.375H31.625V5.75H43.125ZM40.25 8.625H34.5V11.5H40.25V8.625ZM17.25 17.25H28.75V25.875H17.25V17.25ZM20.125 23H25.875V20.125H20.125V23ZM2.875 28.75H14.375V37.375H2.875V28.75ZM5.75 34.5H11.5V31.625H5.75V34.5Z" fill="#06416C"/>
</svg>
